# xmcd
#
# Track frame offsets:
#	150
#	17327
#	47190
#	62455
#	80410
#	98107
#	112737
#	154279
#	166264
#	177828
#	221735
#	246020
#	263495
#	283790
#	300608
#	317300
#	335425
#
# Disc length: 4744 seconds
#
# Revision: 0
# Processed by: cddbd v1.5.1PL0 Copyright (c) Steve Scherf et al.
# Submitted via: audiograbber 1.83.01
#
DISCID=d5128611
DTITLE=Van Morrison - Hymns To The Silence (1CDVersion)
DYEAR=1900
DGENRE=
TTITLE0=Professional Jealousy
TTITLE1=I'm Not Feeling It Anymore
TTITLE2=So Complicated
TTITLE3=I Can't Stop Loving You
TTITLE4=Why Must I Always Explain -
TTITLE5=See Me Throught Part II (Just A Closer Walk With Thee)
TTITLE6=Take Me Back
TTITLE7=By His Grace
TTITLE8=All Saints Day
TTITLE9=Hymns To The Silence
TTITLE10=On Hyndford Street
TTITLE11=Be Thou My Vision
TTITLE12=Carrying A Torch
TTITLE13=Green Mansions
TTITLE14=Pagan Streams
TTITLE15=Quality Street
TTITLE16=I Need Your Kind Of Loving
EXTD=
EXTT0=
EXTT1=
EXTT2=
EXTT3=
EXTT4=
EXTT5=
EXTT6=
EXTT7=
EXTT8=
EXTT9=
EXTT10=
EXTT11=
EXTT12=
EXTT13=
EXTT14=
EXTT15=
EXTT16=
PLAYORDER=
